<svg xmlns="http://www.w3.org/2000/svg" width="1048" height="1101" viewBox="0 0 1048 1101" aria-hidden="true" focusable="false"><g style="isolation:isolate"><g id="moss-place-map-tile-31-11-layer-water" data-map-layer="water"><rect width="1048" height="1101" fill="var(--moss-place-water, #dbe7ea)"/></g><defs><path id="moss-place-map-tile-31-11-land-1" d="m13 189l-12 8l8 1z"/><path id="moss-place-map-tile-31-11-land-2" d="m76 -24l-23 0l2 6l5 2l12 -3z"/><path id="moss-place-map-tile-31-11-land-3" d="m139 462l-4 5l4 1l2 -4zm-159 -415l1 6l3 -5zm19 -24l-6 0l3 5l6 1z"/><path id="moss-place-map-tile-31-11-land-5" d="m-20 179l-1 -3l-3 -2l0 10l5 -1z"/></defs><g id="moss-place-map-tile-31-11-layer-seafloor" data-map-layer="seafloor"><g data-map-band="-10" style="fill:color-mix(in srgb, var(--moss-place-water, #dbe7ea), var(--moss-place-sea-deep, #b9cdd6) 0%)"><path id="moss-place-map-tile-31-11-seafloor-0" d="m-24 -24l0 1149l1096 0l0 -1149zm105 0l-4 5l-5 0l-6 6l-10 -1l-5 -5l-1 -5z" data-map-band="-10"/></g><g data-map-band="-20" style="fill:color-mix(in srgb, var(--moss-place-water, #dbe7ea), var(--moss-place-sea-deep, #b9cdd6) 5.6%)"><path id="moss-place-map-tile-31-11-seafloor-1" d="m-24 -24l0 1149l1096 0l0 -1149zm105 0l-1 5l-8 6l-11 2l-10 -8l-1 -5z" data-map-band="-20"/></g><g data-map-band="-30" style="fill:color-mix(in srgb, var(--moss-place-water, #dbe7ea), var(--moss-place-sea-deep, #b9cdd6) 7.7%)"><path id="moss-place-map-tile-31-11-seafloor-2" d="m-24 -24l0 1149l1096 0l0 -1149zm106 0l-2 5l-8 6l-11 2l-10 -8l-1 -5z" data-map-band="-30"/></g><g data-map-band="-50" style="fill:color-mix(in srgb, var(--moss-place-water, #dbe7ea), var(--moss-place-sea-deep, #b9cdd6) 10.5%)"><path id="moss-place-map-tile-31-11-seafloor-3" d="m-24 -24l0 1149l1096 0l0 -1149zm106 0l-2 5l-8 6l-11 2l-5 -2l-5 -6l-1 -5z" data-map-band="-50"/></g><g data-map-band="-100" style="fill:color-mix(in srgb, var(--moss-place-water, #dbe7ea), var(--moss-place-sea-deep, #b9cdd6) 15.1%)"><path id="moss-place-map-tile-31-11-seafloor-4" d="m-24 -24l0 1149l1096 0l0 -1149zm0 202l4 3l-4 6zm110 -202l-9 9l-11 5l-10 -2l-5 -6l-2 -6z" data-map-band="-100"/></g><g data-map-band="-200" style="fill:color-mix(in srgb, var(--moss-place-water, #dbe7ea), var(--moss-place-sea-deep, #b9cdd6) 21.2%)"><path id="moss-place-map-tile-31-11-seafloor-5" d="m-24 -24l0 1149l1096 0l0 -1149zm8 198l1 7l-1 5l-6 6l-2 1l0 -20l3 -1zm122 -198l-4 5l-5 3l-10 -1l-15 7l-11 1l-5 -2l-5 -5l-3 -8z" data-map-band="-200"/></g><g data-map-band="-1000" style="fill:color-mix(in srgb, var(--moss-place-water, #dbe7ea), var(--moss-place-sea-deep, #b9cdd6) 44.5%)"><path id="moss-place-map-tile-31-11-seafloor-6" d="m-24 -24l0 1149l1096 0l0 -1149l-954 0l-5 14l-5 7l-34 17l-4 6l-1 11l-3 12l-15 20l-10 7l-11 2l-5 -2l-1 -11l3 -11l-4 -22l7 -13l5 -4l2 -6l-1 -27l-7 16l-1 11l-6 6l-7 3l-5 9l-4 10l-16 11l0 6l-5 5l-6 2l-3 -3l0 -17l4 -4l-4 -2l0 -19l2 -1l6 -11l10 -4l11 -1l8 -6l5 -11zm13 154l10 1l6 4l3 7l0 11l-3 17l1 5l9 8l4 9l-1 11l-3 4l-10 7l-6 1l-15 -4l-8 1l0 -68l3 -8z" data-map-band="-1000"/></g><g data-map-band="-2000" style="fill:color-mix(in srgb, var(--moss-place-water, #dbe7ea), var(--moss-place-sea-deep, #b9cdd6) 60.9%)"><path id="moss-place-map-tile-31-11-seafloor-7" d="m-24 1125l1096 0l0 -1149l-947 0l-2 5l-3 17l-4 5l-25 17l-8 11l-9 22l-15 23l-8 6l-21 5l-10 -1l-15 -5l-16 3l-5 3l-6 11l0 5l9 6l12 1l11 6l5 7l7 19l-5 17l1 11l7 11l3 11l-2 11l-6 13l-15 10l-11 1l-10 -3l-5 0l-3 2z" data-map-band="-2000"/></g><g data-map-band="-3000" style="fill:color-mix(in srgb, var(--moss-place-water, #dbe7ea), var(--moss-place-sea-deep, #b9cdd6) 73.1%)"><path id="moss-place-map-tile-31-11-seafloor-8" d="m1072 1125l0 -1149l-939 0l-2 5l1 17l-9 12l-21 16l-10 11l-4 11l-6 11l-16 22l-5 5l-10 6l-22 6l-6 5l-2 6l3 11l6 11l10 5l7 6l0 5l-5 6l-12 7l-2 4l2 11l8 11l0 11l-8 22l-5 8l-10 7l-16 4l-10 1l-6 2l-7 9l0 875z" data-map-band="-3000"/></g><g data-map-band="-4000" style="fill:color-mix(in srgb, var(--moss-place-water, #dbe7ea), var(--moss-place-sea-deep, #b9cdd6) 83.3%)"><path id="moss-place-map-tile-31-11-seafloor-9" d="m1072 1125l0 -1135l-12 12l-6 -2l-5 -8l-2 -16l-14 0l-7 5l-13 11l-5 1l-15 -6l-4 -11l-18 0l-3 5l-6 5l-14 6l-7 6l-4 16l-6 12l-10 9l-6 -1l7 -20l-1 -5l-5 -11l1 -6l16 -11l2 -5l-789 0l1 5l4 6l-7 16l-11 10l-10 11l-21 19l-20 27l-11 17l-10 7l-20 9l-7 6l-1 11l8 6l15 5l4 5l0 11l-3 6l-13 11l-4 6l4 5l12 4l7 7l-1 6l-16 15l-4 7l-12 25l-10 10l-15 1l-6 2l-11 11l-6 16l-6 6l0 840zm-868 -503l6 1l0 7l-6 -3zm-71 -22l21 5l2 6l-2 5l-10 5l-11 0l-5 -2l-6 -8l1 -7zm36 -159l21 30l5 3l26 4l15 -2l10 3l16 0l7 2l13 13l21 8l16 9l15 1l7 2l3 5l-5 5l-10 2l-21 -7l-20 -13l-11 -6l-20 -2l-16 -3l-25 -1l-10 -2l-14 -5l-15 -11l-8 -13l-5 -5l-5 1l-7 6l-14 5l-7 -5l0 -11l2 -5l11 -1l10 3l5 -2l5 -8zm736 -352l3 3l-3 6l-5 -8zm123 -13l6 0l0 5l-9 0zm44 -54l0 44l-3 -2l1 -7l2 -2l0 -4l-3 -3l-20 -9l-3 -2l5 -6l19 -9z" data-map-band="-4000"/></g><g data-map-band="-5000" style="fill:color-mix(in srgb, var(--moss-place-water, #dbe7ea), var(--moss-place-sea-deep, #b9cdd6) 92.1%)"><path id="moss-place-map-tile-31-11-seafloor-10" d="m1039 -5l-5 -3l-5 2l-8 15l0 11l3 11l5 5l20 -16l-1 -11zm33 1130l0 -1050l-9 -5l-6 -6l-1 -11l-7 -3l-15 3l3 6l9 5l3 6l-5 24l-5 7l-10 0l-16 3l-5 -1l-5 -11l1 -28l4 -4l15 -7l5 -5l-1 -11l-4 -6l-5 3l-10 -4l-5 1l-6 17l-4 5l-11 -2l-5 -7l-4 -24l-6 -12l-5 -1l-12 13l-11 11l-8 12l-5 4l-11 -1l-5 -2l-4 -7l0 -6l4 -11l-2 -6l-8 -2l-10 2l-5 -5l6 -11l-1 -11l5 -3l10 0l9 -3l4 -5l-729 0l-6 5l-4 11l-15 10l-7 7l-19 10l-10 12l-15 13l-11 10l-17 22l-10 16l-21 17l-3 6l15 5l7 5l2 11l-3 17l-6 11l1 6l7 11l-1 11l-7 9l-15 14l-5 6l-8 15l-8 25l-12 13l-4 11l-9 7l-11 3l-15 1l-3 1l0 828zm-599 -362l8 4l12 13l9 3l7 5l-5 5l-14 -5l-12 -8l-10 -4l-6 -4l-2 -5l3 -3zm-175 -90l21 4l7 4l-7 4l-11 0l-12 -4l-5 -6zm-185 -120l20 17l5 0l11 -7l10 4l10 11l11 14l5 3l15 5l10 5l17 27l2 11l-3 2l-31 3l-10 -6l-5 -1l-16 2l-10 -2l-31 -15l-14 -21l-11 -37l-1 -6l5 -8l6 -2zm957 -19l2 1l0 9l-2 2l-7 0l-1 -5zm-484 -49l8 7l-2 5l-11 3l-7 -3l2 -15zm-20 -34l8 3l3 5l-1 15l-5 2l-16 -7l-15 0l-11 -4l8 -6l13 -5zm-464 -25l11 9l5 2l31 5l5 -2l5 -6l5 -3l10 5l6 7l10 16l10 9l16 3l10 -1l10 -4l16 4l25 5l5 -2l11 -7l5 4l2 6l-6 11l3 5l16 10l11 4l10 0l10 2l8 6l3 5l-6 5l-10 6l-10 2l-21 -8l-15 -9l-16 -7l-10 -3l-26 -4l-15 -1l-18 -3l-22 -5l-22 -11l-10 -7l-16 0l-8 -4l-7 -13l-15 -8l-21 -17l-2 -5l7 -4zm500 -2l5 4l5 10l0 11l-5 1l-5 -4l-7 -8l1 -14zm-42 -68l21 3l5 9l-5 4l-10 -1l-11 2l-10 -1l-7 -5l5 -6zm443 -39l2 6l-2 8l-5 4l-4 -6l-1 -6l5 -7zm-515 -98l5 8l5 14l-5 5l-5 -1l-4 -4l3 -11l-1 -5zm-242 -11l12 0l9 6l-4 5l-6 4l-31 9l-11 -2l-10 -4l-15 5l-10 -2l-14 -4l1 -6l18 -6l5 0l15 6l11 -1l15 -7zm42 -9l6 4l-2 5l-10 7l-13 -1l10 -11zm782 -53l2 2l0 38l-12 9l-6 -2l-5 -7l-10 -8l-5 -8l5 -12l5 -4l10 1l9 -2zm-16 -33l6 5l0 11l-6 1l-5 -5l0 -12zm-658 -33l11 7l3 11l-4 14l-15 2l-6 -5l2 -22l4 -7zm530 -7l3 8l2 18l5 4l10 3l2 8l-2 12l-5 7l-31 -3l-6 -5l-2 -11l-10 -22l0 -5l8 -8l21 -8zm-582 -59l5 4l3 8l-3 7l-5 -7zm355 -30l5 8l-5 2l-4 -2l-3 -5z" data-map-band="-5000"/></g><g data-map-band="-6000" style="fill:color-mix(in srgb, var(--moss-place-water, #dbe7ea), var(--moss-place-sea-deep, #b9cdd6) 100%)"><path id="moss-place-map-tile-31-11-seafloor-11" d="m1072 87l-4 -6l-8 -4l-6 3l-1 7l1 6l6 5l8 5l4 4zm0 1038l0 -554l-2 1l-11 -4l-15 -2l-5 -2l-4 -7l0 -5l8 -17l-3 -16l4 -10l16 -22l-1 -6l-5 -5l-10 -4l-2 -7l2 -6l6 -5l2 -11l-5 -11l1 -5l6 -5l18 4l0 -148l-3 -4l-2 -5l1 -11l4 -9l0 -46l-2 -1l-16 8l-5 1l-10 -4l-10 1l-9 -11l-2 -5l-1 -11l2 -11l6 -17l0 -6l-2 -11l-5 -6l-5 1l-10 10l-16 9l-3 -8l2 -33l-2 -6l-6 -5l-6 -12l-10 -3l-5 3l2 12l1 11l-6 27l-8 10l-15 1l-7 -5l-19 -5l-7 -6l-3 -17l-8 -22l3 -11l17 -17l3 -5l-1 -6l-8 -11l-4 -16l-12 -4l-6 -4l-2 -9l4 -11l1 -11l8 -10l2 -1l-681 0l-1 3l-16 19l-20 13l-15 13l-15 3l-9 10l-12 10l-15 11l-11 12l-7 11l-4 11l-7 11l0 6l13 9l3 7l-1 11l2 6l6 8l6 14l-5 6l-11 3l-8 19l-10 11l-23 21l-5 6l-5 11l-2 22l-2 6l-12 10l-7 11l-8 9l-16 13l-5 12l-5 5l-8 3l0 793zm-434 -85l9 4l3 5l-3 6l-9 1l-6 -1l-6 -6l1 -5zm51 -143l8 3l-1 6l-7 2l-7 -2l0 -6zm-211 -139l7 3l8 11l6 4l10 2l5 4l6 11l-1 8l-5 3l-5 1l-21 -5l-5 -3l-7 -9l-13 -9l-13 -12l-1 -6l3 -4l5 -1zm-118 -62l5 2l6 15l-6 1l-17 -12l2 -5zm346 1l4 -5l2 5l-2 10zm-249 -97l7 5l-7 8l-6 -2l0 -6zm-339 -66l20 8l16 0l7 4l19 33l5 5l25 14l6 4l10 20l10 13l16 10l10 2l20 1l6 4l10 11l10 5l16 3l8 4l3 6l2 11l-3 1l-31 -4l-7 -3l-19 -13l-20 -12l-16 -6l-15 -2l-10 0l-16 2l-10 -1l-10 -3l-21 -2l-15 -4l-16 1l-10 -5l-7 -9l-3 -16l-7 -11l-4 -21l-10 -16l-2 -11l4 -16l8 -8l11 -1zm520 -17l3 7l-2 17l-6 5l-11 -2l-6 -3l-4 -6l3 -5l12 -11zm0 -28l6 3l-1 6l-5 0zm-294 -17l14 4l9 5l5 6l-3 5l-4 2l-26 2l-9 -9l0 -6l4 -5zm258 -54l11 14l4 11l1 11l4 6l10 6l4 10l-4 7l-5 -2l-31 -20l-5 0l-4 9l2 6l16 16l1 5l-13 6l-17 1l-5 -1l-9 -16l-17 -12l-21 -2l-6 -3l-1 -5l5 -6l23 -10l21 -8l5 0l15 5l2 -3l3 -22l5 -5zm-494 -19l16 6l10 6l-4 5l-16 5l4 6l20 4l11 -6l10 -2l10 2l17 13l5 5l4 11l5 5l10 4l9 -4l1 -10l6 -4l5 0l10 4l12 10l8 6l11 2l5 -2l11 -9l5 -2l5 2l11 20l2 16l6 5l7 2l20 0l16 10l10 1l5 -1l16 -14l5 -3l10 0l7 5l-5 11l-12 8l-26 5l-21 10l-20 6l-5 -1l-11 -6l-10 -4l-15 -9l-16 -6l-15 -2l-16 -3l-25 -3l-31 -7l-21 -8l-15 -10l-16 -1l-9 -7l-6 -8l-10 -5l-39 -30l-7 -11l4 -5l11 -6l15 -3l5 -2zm458 -50l15 3l5 3l4 6l0 11l-4 5l-15 -2l-21 2l-10 -3l-11 0l-5 -2l14 -11l17 -9zm406 -67l6 3l4 5l2 11l3 6l16 1l5 4l2 6l-1 11l-6 12l-5 4l-5 -2l-7 -14l-4 -6l-10 -3l-9 -13l-13 -6l-6 -5l2 -6l16 -8zm-653 -55l9 3l2 6l-3 5l-8 5l-10 -5l0 -5l4 -6zm617 -4l3 13l-3 3l-4 -9zm103 0l3 7l-3 7l-5 -2l-3 -5l0 -5zm-556 -22l16 24l3 11l0 11l-3 5l-16 0l-8 -5l0 -6l3 -11l-5 -11l-9 -5l0 -6l9 -10l5 0zm443 -3l5 10l0 6l-5 -1l-8 -5l3 -8zm-623 -15l14 3l4 6l-4 5l-29 26l-14 7l-7 5l-5 1l-16 -1l-15 6l-10 0l-16 -6l-20 1l-22 -6l-14 -5l-1 -6l6 -3l31 -8l20 2l5 -1l16 -7l20 -5l21 -7l16 -4zm-62 -20l8 7l0 5l-8 3l-5 -3l-4 -5l0 -6zm685 0l5 7l3 11l-1 5l-7 10l-16 -10l-5 -5l1 -6l6 -5zm-592 -163l10 4l11 10l10 26l5 5l16 8l16 17l14 10l6 12l-2 17l2 22l2 5l13 21l15 9l5 15l-2 5l-8 4l-5 -1l-8 -8l-4 -11l-3 -3l-17 -3l-3 -5l7 -12l-3 -11l-10 -9l-16 -5l-9 -8l-3 -5l0 -11l-3 -10l-14 -12l-2 -6l-2 -17l-8 -8l-5 -11l-8 -25l-1 -6zm365 -21l9 8l2 5l-3 6l-8 1l-10 -7l-2 -5l1 -6l6 -3z" data-map-band="-6000"/><path id="moss-place-map-tile-31-11-seafloor-12" d="m351 991l18 -5l1 -4l-7 0l-50 9l-8 0l-12 -8l-5 4l17 12l-1 7l-22 -1l-5 11l-5 3l0 8l9 10l4 9l0 14l4 2l12 1l5 2l12 17l9 3l1 -2l-1 -10l3 -13l-13 -3l-4 -9l0 -5l5 -5l7 -3l3 -5l1 -8l5 -1l8 1l5 -7l0 -15zm-24 1l6 1l5 6l0 9l-7 5l-5 -3l-3 -7l1 -7zm-17 20l7 4l4 8l-4 10l-6 5l-7 1l-4 -3l-1 -7l3 -16z" data-map-band="-6000"/><path id="moss-place-map-tile-31-11-seafloor-13" d="m246 1051l4 -2l-2 -7l-8 -7l-7 -3l-10 -1l1 7l7 9z" data-map-band="-6000"/></g></g><g id="moss-place-map-tile-31-11-layer-land" data-map-layer="land"><use href="#moss-place-map-tile-31-11-land-1" fill="var(--moss-place-land, #e3e6d5)"/><use href="#moss-place-map-tile-31-11-land-2" fill="var(--moss-place-land, #e3e6d5)"/><use href="#moss-place-map-tile-31-11-land-3" fill="var(--moss-place-land, #e3e6d5)"/><use href="#moss-place-map-tile-31-11-land-5" fill="var(--moss-place-land, #e3e6d5)"/></g><g id="moss-place-map-tile-31-11-layer-relief" data-map-layer="relief" clip-path="url(#moss-place-map-tile-31-11-land-clip)"></g><clipPath id="moss-place-map-tile-31-11-land-clip"><use href="#moss-place-map-tile-31-11-land-1" height="100%" data-map-role="land-clip"/><use href="#moss-place-map-tile-31-11-land-2" height="100%" data-map-role="land-clip"/><use href="#moss-place-map-tile-31-11-land-3" height="100%" data-map-role="land-clip"/><use href="#moss-place-map-tile-31-11-land-5" height="100%" data-map-role="land-clip"/></clipPath><g id="moss-place-map-tile-31-11-layer-ice" data-map-layer="ice"></g><g id="moss-place-map-tile-31-11-layer-salt" data-map-layer="salt"></g><g id="moss-place-map-tile-31-11-layer-lakes" data-map-layer="lakes"></g><g id="moss-place-map-tile-31-11-layer-rivers" data-map-layer="rivers"></g><g id="moss-place-map-tile-31-11-layer-reefs" data-map-layer="reefs"><path d="m638 1053l-4 1l-1 -7l5 0l1 6" fill="none" stroke="var(--moss-place-reefs, #b9d6cf)" stroke-width="13.2"/></g><g id="moss-place-map-tile-31-11-layer-built-up" data-map-layer="built-up"></g><g id="moss-place-map-tile-31-11-markers" data-map-layer="marker" aria-label="markers"></g></g></svg>