<svg xmlns="http://www.w3.org/2000/svg" width="94.359" height="99.239" viewBox="0 0 94.359 99.239" aria-hidden="true" focusable="false"><defs><filter id="moss-place-map-tile-32-11-height-filter" color-interpolation-filters="sRGB"><feColorMatrix in="SourceGraphic" type="luminanceToAlpha" result="height-alpha"/><feGaussianBlur in="height-alpha" stdDeviation="9" result="height-blur-9"/><feColorMatrix in="height-blur-9" type="matrix" values="0 0 0 1 0  0 0 0 1 0  0 0 0 1 0  0 0 0 1 0" result="height-coverage"/><feDiffuseLighting in="height-blur-9" surfaceScale="78" diffuseConstant="1" lighting-color="#ffffff" result="lit-steep"><feDistantLight azimuth="240" elevation="45"/></feDiffuseLighting><feColorMatrix in="lit-steep" type="matrix" values="0 0 0 0 0  0 0 0 0 0  0 0 0 0 0  1 0 0 0 0" result="lit-steep-alpha"/><feGaussianBlur in="height-alpha" stdDeviation="4" result="height-blur-4"/><feDiffuseLighting in="height-blur-4" surfaceScale="34" diffuseConstant="1" lighting-color="#ffffff" result="lit-soft"><feDistantLight azimuth="240" elevation="45"/></feDiffuseLighting><feColorMatrix in="lit-soft" type="matrix" values="0 0 0 0 0  0 0 0 0 0  0 0 0 0 0  1 0 0 0 0" result="lit-soft-alpha"/><feComposite in="lit-steep-alpha" in2="lit-soft-alpha" operator="arithmetic" k1="0" k2="0.7" k3="0.3" k4="0" result="lit-mix"/><feComponentTransfer in="lit-mix" result="lit-hi-mask"><feFuncA type="linear" slope="1.877817459305202" intercept="-1.327817459305202"/></feComponentTransfer><feComponentTransfer in="lit-mix" result="lit-lo-mask"><feFuncA type="linear" slope="-0.6363961030678928" intercept="0.45"/></feComponentTransfer><feFlood flood-color="var(--moss-place-light-warm, #fff3d0)" flood-opacity="var(--moss-place-light-warm-strength, 1)" result="lit-hi-flood"/><feComposite in="lit-hi-flood" in2="lit-hi-mask" operator="in" result="lit-hi-tint"/><feFlood flood-color="var(--moss-place-light-cool, #5a6488)" flood-opacity="var(--moss-place-light-cool-strength, 0.8889)" result="lit-lo-flood"/><feComposite in="lit-lo-flood" in2="lit-lo-mask" operator="in" result="lit-lo-tint"/><feMerge result="lit-combined"><feMergeNode in="lit-lo-tint"/><feMergeNode in="lit-hi-tint"/></feMerge><feGaussianBlur in="lit-combined" stdDeviation="2" result="lit-smooth"/><feComposite in="lit-smooth" in2="height-coverage" operator="arithmetic" k1="1" k2="0" k3="0" k4="0"/></filter><radialGradient id="moss-place-map-tile-32-11-marker-fade"><stop offset="0" stop-color="var(--moss-place-marker, #2d5a2d)" stop-opacity="0.28"/><stop offset="1" stop-color="var(--moss-place-marker, #2d5a2d)" stop-opacity="0"/></radialGradient><clipPath id="moss-place-map-tile-32-11-globe-clip"><circle cx="648" cy="72" r="63"/></clipPath><path id="moss-place-map-tile-32-11-height-empty" d="m0 0l0 0"/><filter id="moss-place-map-tile-32-11-soft" filterUnits="userSpaceOnUse" x="-24" y="-24" width="142.359" height="528"><feGaussianBlur stdDeviation="2.4"/></filter></defs><defs><filter id="moss-place-map-tile-32-11-shadow-relief" color-interpolation-filters="sRGB" filterUnits="userSpaceOnUse" x="-12" y="-12" width="118.359" height="504"><feDropShadow in="SourceGraphic" dx="1.4" dy="1.4" stdDeviation="0.7" flood-color="var(--moss-place-shadow, #5a6488)" flood-opacity="0.35" result="with-shadow"/><feDropShadow in="SourceGraphic" dx="-0.7" dy="-0.7" stdDeviation="0.49" flood-color="var(--moss-place-light-warm, #fff3d0)" flood-opacity="var(--moss-place-relief-edge-opacity, 0)" result="with-edge"/><feMerge><feMergeNode in="with-shadow"/><feMergeNode in="with-edge"/></feMerge></filter><filter id="moss-place-map-tile-32-11-shadow-seafloor" color-interpolation-filters="sRGB" filterUnits="userSpaceOnUse" x="-12" y="-12" width="118.359" height="504"><feDropShadow in="SourceGraphic" dx="1" dy="1" stdDeviation="0.6" flood-color="var(--moss-place-shadow, #5a6488)" flood-opacity="0.22"/></filter></defs><g id="moss-place-map-tile-32-11-layer-water" data-map-layer="water"><rect width="94.359" height="99.239" fill="var(--moss-place-water, #e9eff2)"/></g><defs></defs><g id="moss-place-map-tile-32-11-layer-coast" data-map-layer="coast" filter="url(#moss-place-map-tile-32-11-soft)"></g><g id="moss-place-map-tile-32-11-layer-seafloor" data-map-layer="seafloor"><g data-map-band="-10" style="fill:color-mix(in srgb, var(--moss-place-water, #e9eff2), var(--moss-place-sea-deep, #bfd0dc) 0%)" filter="url(#moss-place-map-tile-32-11-shadow-seafloor)"><path id="moss-place-map-tile-32-11-seafloor-0" d="m-24 -24l0 147l142 0l0 -147z" data-map-band="-10"/></g><g data-map-band="-20" style="fill:color-mix(in srgb, var(--moss-place-water, #e9eff2), var(--moss-place-sea-deep, #bfd0dc) 5.6%)" filter="url(#moss-place-map-tile-32-11-shadow-seafloor)"><path id="moss-place-map-tile-32-11-seafloor-1" d="m-24 -24l0 147l142 0l0 -147z" data-map-band="-20"/></g><g data-map-band="-30" style="fill:color-mix(in srgb, var(--moss-place-water, #e9eff2), var(--moss-place-sea-deep, #bfd0dc) 7.7%)" filter="url(#moss-place-map-tile-32-11-shadow-seafloor)"><path id="moss-place-map-tile-32-11-seafloor-2" d="m-24 -24l0 147l142 0l0 -147z" data-map-band="-30"/></g><g data-map-band="-50" style="fill:color-mix(in srgb, var(--moss-place-water, #e9eff2), var(--moss-place-sea-deep, #bfd0dc) 10.5%)" filter="url(#moss-place-map-tile-32-11-shadow-seafloor)"><path id="moss-place-map-tile-32-11-seafloor-3" d="m-24 -24l0 147l142 0l0 -147z" data-map-band="-50"/></g><g data-map-band="-100" style="fill:color-mix(in srgb, var(--moss-place-water, #e9eff2), var(--moss-place-sea-deep, #bfd0dc) 15.1%)" filter="url(#moss-place-map-tile-32-11-shadow-seafloor)"><path id="moss-place-map-tile-32-11-seafloor-4" d="m-24 -24l0 147l142 0l0 -147z" data-map-band="-100"/></g><g data-map-band="-200" style="fill:color-mix(in srgb, var(--moss-place-water, #e9eff2), var(--moss-place-sea-deep, #bfd0dc) 21.2%)" filter="url(#moss-place-map-tile-32-11-shadow-seafloor)"><path id="moss-place-map-tile-32-11-seafloor-5" d="m-24 -24l0 147l142 0l0 -147z" data-map-band="-200"/></g><g data-map-band="-1000" style="fill:color-mix(in srgb, var(--moss-place-water, #e9eff2), var(--moss-place-sea-deep, #bfd0dc) 44.5%)" filter="url(#moss-place-map-tile-32-11-shadow-seafloor)"><path id="moss-place-map-tile-32-11-seafloor-6" d="m-24 -24l0 147l142 0l0 -147zm43 45l3 4l0 4l-1 3l1 3l-2 0l0 -11l-1 -2z" data-map-band="-1000"/></g><g data-map-band="-2000" style="fill:color-mix(in srgb, var(--moss-place-water, #e9eff2), var(--moss-place-sea-deep, #bfd0dc) 60.9%)" filter="url(#moss-place-map-tile-32-11-shadow-seafloor)"><path id="moss-place-map-tile-32-11-seafloor-7" d="m-24 -24l0 147l142 0l0 -147zm36 75l2 1l-1 3l-2 -3zm8 -31l3 4l0 6l-1 3l1 2l-1 2l-2 -1l-1 -3l0 -4l1 -4l-2 -3l1 -2zm-20 -35l2 0l-1 3l-2 -3zm0 -5l1 2l-3 0l1 -2z" data-map-band="-2000"/></g><g data-map-band="-3000" style="fill:color-mix(in srgb, var(--moss-place-water, #e9eff2), var(--moss-place-sea-deep, #bfd0dc) 73.1%)" filter="url(#moss-place-map-tile-32-11-shadow-seafloor)"><path id="moss-place-map-tile-32-11-seafloor-8" d="m118 123l0 -147l-116 0l-1 2l0 6l3 0l0 2l-4 5l0 -4l-2 -1l0 3l-2 2l-4 -3l-1 -3l4 -3l0 -2l-3 -3l-3 -1l-13 0l0 147zm-101 -48l2 3l-2 0l0 -2zm-1 -13l3 3l-3 0l0 3l-3 0l0 -3l2 -3zm-4 -17l1 2l-1 3l2 2l1 7l-2 2l-2 -1l1 -3l-2 -3l0 -9l1 -1zm38 -7l2 3l-2 0l-1 -3zm-31 -19l4 2l1 4l-1 3l1 2l-1 2l1 3l-1 3l-4 -3l0 -11l-1 -4zm-15 -25l2 3l-4 0l-1 -2l2 -2z" data-map-band="-3000"/></g><g data-map-band="-4000" style="fill:color-mix(in srgb, var(--moss-place-water, #e9eff2), var(--moss-place-sea-deep, #bfd0dc) 83.3%)" filter="url(#moss-place-map-tile-32-11-shadow-seafloor)"><path id="moss-place-map-tile-32-11-seafloor-9" d="m-1 -9l-2 0l0 2l3 0zm119 132l0 -147l-114 0l-1 6l2 1l0 4l-1 1l0 4l2 1l1 4l-3 1l-2 2l-1 -3l-3 2l-2 -2l-2 0l-2 2l-1 3l-2 1l2 -5l0 -3l-2 0l0 -2l-3 -1l5 -3l-1 -4l2 -3l-3 1l2 -4l-3 0l0 -3l-12 0l0 147zm-14 -5l1 2l-3 2l-3 -2l3 0l1 -2zm-74 -4l0 5l-2 -1l1 -3zm-2 -9l2 2l1 3l-2 1l-2 -3l1 -2zm56 -5l1 2l-3 -1zm-33 -3l1 1l-2 2l-2 -3l2 0zm-5 -5l1 3l-2 -2zm31 1l1 1l-4 0l2 -1zm-53 -2l3 3l0 5l-1 -2l-3 -1l1 -3zm4 -17l2 0l1 2l-4 -1zm-11 -2l3 6l-4 1l0 -5zm18 -26l2 0l0 2l-2 0l-1 -2zm-24 -2l2 0l0 6l2 2l1 4l0 4l4 5l-2 2l-1 4l-3 -1l-3 -3l1 -3l-1 -2l0 -4l-3 -5l1 -2l0 -7l1 0zm29 -6l1 2l-2 2l-2 -1l0 -2l2 -1zm10 0l3 1l0 2l-3 0l-1 -3zm-40 -1l1 3l-3 1l-1 -3l2 -1zm18 -1l2 2l-1 1l-2 -3zm-19 -4l2 2l-3 1l0 -2zm0 -5l0 2l-3 -1l2 -1zm12 -11l3 5l1 3l-1 1l0 9l1 1l-1 4l-3 0l-2 -3l0 -11l-1 -2l0 -4l3 -1zm-17 -14l0 4l-3 -3l2 -1z" data-map-band="-4000"/></g><g data-map-band="-5000" style="fill:color-mix(in srgb, var(--moss-place-water, #e9eff2), var(--moss-place-sea-deep, #bfd0dc) 92.1%)" filter="url(#moss-place-map-tile-32-11-shadow-seafloor)"><path id="moss-place-map-tile-32-11-seafloor-10" d="m0 -1l-1 0l0 4l2 -3zm118 124l0 -147l-112 0l1 1l-2 5l2 3l-1 4l2 2l0 6l-3 4l0 6l-4 -2l0 3l-3 1l-1 -4l2 -1l-2 -2l0 2l-2 0l-1 -4l-3 2l0 2l-2 0l-3 -4l1 -2l2 0l1 -2l-5 -4l4 -2l1 -2l-2 -2l2 -2l-3 -1l1 -3l-1 -4l-11 0l0 147zm-14 -6l2 2l-2 4l-6 -1l1 -3l3 0l1 -2zm-49 -2l1 3l-1 1l4 4l-5 0l-1 -1l1 -3l-2 -1l2 -3zm30 -18l0 3l2 3l-1 1l-6 -3l3 -2l1 -2zm11 0l1 3l-3 -2l1 -1zm-5 -2l1 3l-3 -2zm-14 -3l1 3l-4 0l0 -2zm-54 -4l5 7l0 6l-1 1l3 4l1 4l-1 2l1 5l1 1l-1 4l-2 1l0 -3l-2 -2l1 -8l-2 0l1 -5l-3 -1l1 -2l0 -4l-2 -1l0 -8zm14 -9l3 3l2 0l1 2l3 2l2 0l3 4l-2 3l2 -1l4 0l-2 2l0 2l3 6l-1 5l0 5l-3 0l0 -3l2 -1l-1 -3l-1 1l-2 -3l0 -2l-2 -1l-1 -5l-2 0l-4 -3l1 -5l-4 0l1 -5l-3 -1l0 -2zm37 -37l2 1l-4 1l1 -2zm-8 -1l1 2l-3 0l1 -2zm-26 -3l1 2l-2 2l-1 6l-4 0l-1 -3l3 -1l-2 -4l3 -2l2 0zm10 -1l1 2l3 1l0 2l-4 0l-3 -4l2 -1zm-22 -2l2 2l0 2l-2 0l-1 -3zm-19 -9l1 1l0 4l2 3l-2 2l2 2l-2 4l4 3l0 5l3 2l1 5l-1 4l3 3l1 3l2 0l4 4l1 2l3 1l4 7l-3 0l0 -3l-2 -2l-3 0l-3 -6l-5 -1l-1 4l1 3l2 1l-1 3l1 4l-3 -2l0 -2l-3 0l1 -3l0 -5l-6 -4l0 -8l-2 -3l-2 0l2 -10l-1 -3l0 -8l-1 -2l1 -4l-2 -1l1 -3l2 0zm-6 -13l2 2l2 -1l0 4l-2 1l-1 -3l-2 1l-2 -1l0 -2l3 0zm15 -2l4 4l3 7l0 18l-3 1l2 2l2 0l0 6l-4 3l-2 0l1 -5l2 -3l-2 -1l0 -4l-2 -2l-1 -4l0 -5l1 -3l-2 -2l1 -4l0 -5l-1 -2zm-28 -5l2 3l0 3l-4 -1l-1 -4l1 0z" data-map-band="-5000"/></g><g data-map-band="-6000" style="fill:color-mix(in srgb, var(--moss-place-water, #e9eff2), var(--moss-place-sea-deep, #bfd0dc) 100%)" filter="url(#moss-place-map-tile-32-11-shadow-seafloor)"><path id="moss-place-map-tile-32-11-seafloor-11" d="m24 71l-1 -1l-3 1l0 5l3 0l1 -4zm-21 -64l-1 2l2 1l0 -2zm115 116l0 -147l-110 0l0 2l2 1l1 3l-2 0l0 2l2 3l-2 1l1 2l2 0l1 3l-4 2l0 3l-2 2l-1 4l2 3l-2 4l-2 0l1 2l3 1l0 7l-2 -1l-1 3l2 -1l4 5l0 4l1 1l0 4l1 3l-1 2l3 3l1 3l3 0l1 -2l0 -6l-2 -3l0 -11l-1 -1l0 -11l-1 -6l3 0l1 5l3 3l3 7l0 10l5 6l-3 3l-2 -2l1 3l0 7l-2 2l1 6l-2 0l-1 5l-2 0l0 2l3 2l2 0l2 6l1 0l6 6l2 0l5 2l4 5l3 0l2 3l3 2l3 0l2 3l4 2l-1 5l-2 -2l-2 -5l-2 1l-1 3l2 4l1 5l-3 7l2 2l3 8l-7 0l0 -3l-2 -1l0 -2l2 -3l-2 -3l1 -3l-7 -12l-4 -2l-1 -6l-3 2l-2 -1l3 -4l0 -3l-2 0l0 2l-2 2l-1 -4l-2 -1l0 -3l-4 -2l-3 1l-3 3l2 4l0 3l5 7l1 3l0 6l2 3l0 6l1 2l-1 2l1 5l-1 2l-5 -1l1 -2l0 -9l-3 0l2 -4l0 -2l-2 0l0 -7l-2 -1l0 -9l-1 -3l-4 -2l1 -2l-4 -1l1 -1l0 -7l-4 -2l-2 -2l0 -8l-4 -1l0 -8l-2 1l-3 -1l1 -3l-1 -1l2 -3l-1 -6l5 1l0 -8l-3 -1l2 -3l-2 -2l1 -7l-3 1l-3 -2l1 -2l0 -4l-3 2l-1 -1l1 -3l-3 -2l0 5l-2 1l-3 -1l-1 -5l2 -3l-1 -2l-2 0l0 -4l2 -1l-1 -3l-3 -1l1 -2l4 -2l-3 0l-1 -2l3 -1l0 -2l-2 -1l-1 -4l2 -3l-11 0l0 147zm-15 -6l3 0l-1 6l-8 0l1 -4l4 -2zm-35 -2l0 3l-2 0l0 -3zm-2 -7l1 2l-2 1l0 -2zm44 -8l0 3l-2 0l1 -3zm-25 -3l2 7l-7 -2l0 -2l3 -1l1 -2zm6 -3l2 1l0 3l-5 -1l2 -3zm4 -1l1 3l6 6l-2 3l-3 -4l-4 -3l2 -4zm-18 -2l1 4l-4 1l-1 -3l1 -1zm18 -34l2 1l-2 2l-2 -1l1 -2zm-21 -16l3 2l-5 1l-1 -2l2 -1zm-8 0l2 3l-4 -1l1 -2zm-17 -4l5 2l1 3l-6 0l0 -2l-3 -1l2 -2zm-6 -1l1 2l-3 -1l1 3l-2 2l0 3l-2 4l-6 -3l2 -2l-2 -5l5 -2l5 -1zm7 -9l0 3l-2 -2l1 -1zm-56 -2l1 2l3 1l-1 3l-1 -2l-2 0l0 -2l-2 0l1 -2zm60 -4l1 3l-2 -2zm-64 -7l1 3l-3 -1l1 -1z" data-map-band="-6000"/><path id="moss-place-map-tile-32-11-seafloor-12" d="m64 67l0 1l-5 0l-3 -1l-3 1l-3 -3l-1 2l-5 -4l-1 1l2 3l-2 3l4 0l4 5l0 2l2 3l2 -1l5 4l2 0l4 10l2 0l0 -4l-3 -4l2 -3l-2 -2l0 -7l-1 -5z" data-map-band="-6000"/><path id="moss-place-map-tile-32-11-seafloor-13" d="m42 63l-2 -1l-2 -4l-2 -2l0 -2l-3 -1l-2 -3l0 4l2 2l0 4l1 2l4 1l3 3l0 -2z" data-map-band="-6000"/><path id="moss-place-map-tile-32-11-seafloor-14" d="m91 4l0 -2l3 2l0 2l3 2l0 -2l-2 -1l0 -2l-2 -1l0 -2l3 -1l2 1l0 2l-2 0l2 3l2 -1l2 1l1 -3l-1 -2l4 1l-2 -3l1 -2l-3 -1l0 -3l-2 0l-1 2l-3 0l0 -2l-2 -1l-1 -5l-5 2l-4 -1l-2 1l-1 -6l-2 2l-3 0l-7 -6l2 3l-2 2l-3 1l-2 -1l-1 -4l-2 0l-1 -2l-4 -1l-1 3l0 4l-3 1l2 1l1 6l-1 -2l-3 -1l1 5l5 11l5 7l3 1l1 3l4 2l2 2l5 -1l-1 -6l3 -4l-1 3l3 0l-1 8l11 3l-2 1l1 4l3 -2l-2 -1l0 -2l4 1l0 2l3 -2l3 2l4 0l3 -2l-4 -1l-3 1l0 -2l2 -1l-2 -1l-2 1l-1 -4l-4 -1l-2 -2l-2 0l1 -3l-2 -1l4 -3l-3 -1zm-28 0l1 3l-2 -2zm29 -6l-1 -3l5 1l-2 2zm-19 16l-3 -2l1 -2l2 3zm14 -4l1 -1l2 2l-2 0zm10 9l2 1l-2 2z" data-map-band="-6000"/><path id="moss-place-map-tile-32-11-seafloor-15" d="m71 103l1 -3l-3 -1z" data-map-band="-6000"/><path id="moss-place-map-tile-32-11-seafloor-16" d="m82 34l-3 -2l-3 1l1 4l2 0l-1 2l4 2l5 0l3 -3l1 -4l-3 0l-2 -2l-1 2l-2 0zm0 3l2 -2l0 3l-2 0z" data-map-band="-6000"/><path id="moss-place-map-tile-32-11-seafloor-17" d="m16 -24l1 4l0 6l2 1l0 6l3 3l0 5l-1 3l2 1l6 14l1 3l-1 1l0 6l3 5l4 -4l1 -2l-3 1l6 -5l1 -5l-2 -2l-1 -3l-5 -5l-1 -6l-2 -2l0 -3l-3 -4l2 -2l-1 -2l0 -4l-1 -2l0 -8z" data-map-band="-6000"/></g></g><g id="moss-place-map-tile-32-11-layer-land" data-map-layer="land"></g><g id="moss-place-map-tile-32-11-layer-relief" data-map-layer="relief" clip-path="url(#moss-place-map-tile-32-11-land-clip)"></g><clipPath id="moss-place-map-tile-32-11-land-clip"></clipPath><g id="moss-place-map-tile-32-11-lighting" data-map-layer="lighting" clip-path="url(#moss-place-map-tile-32-11-land-clip)" aria-hidden="true"><g id="moss-place-map-tile-32-11-height-field" filter="url(#moss-place-map-tile-32-11-height-filter)" opacity="0.5"><use href="#moss-place-map-tile-32-11-height-empty" height="100%" fill="rgb(128 128 128)" fill-opacity="1" data-map-role="height-field"/></g></g><g id="moss-place-map-tile-32-11-layer-ice" data-map-layer="ice"></g><g id="moss-place-map-tile-32-11-layer-salt" data-map-layer="salt"></g><g id="moss-place-map-tile-32-11-layer-lakes" data-map-layer="lakes"></g><g id="moss-place-map-tile-32-11-layer-rivers" data-map-layer="rivers"></g><g id="moss-place-map-tile-32-11-layer-reefs" data-map-layer="reefs"></g><g id="moss-place-map-tile-32-11-layer-built-up" data-map-layer="built-up"></g><g id="moss-place-map-tile-32-11-markers" data-map-layer="marker" aria-label="markers"></g></svg>